<svg width="40" height="40" viewBox="0 0 40 40" fill="none" xmlns="http://www.w3.org/2000/svg">
<path d="M16.6666 17.4997C16.6666 18.8804 15.9204 19.9997 14.9999 19.9997C14.0794 19.9997 13.3333 18.8804 13.3333 17.4997C13.3333 16.119 14.0794 14.9997 14.9999 14.9997C15.9204 14.9997 16.6666 16.119 16.6666 17.4997Z" fill="#CACFD6"/>
<path d="M26.6666 17.4997C26.6666 18.8804 25.9204 19.9997 24.9999 19.9997C24.0794 19.9997 23.3333 18.8804 23.3333 17.4997C23.3333 16.119 24.0794 14.9997 24.9999 14.9997C25.9204 14.9997 26.6666 16.119 26.6666 17.4997Z" fill="#CACFD6"/>
<path fill-rule="evenodd" clip-rule="evenodd" d="M19.9999 2.08301C10.0702 2.08301 2.08325 10.364 2.08325 20.5007V32.8713C2.08325 35.9488 5.27069 38.0765 8.07092 36.6343C9.207 36.0492 10.558 36.1344 11.6192 36.8631C13.6642 38.2674 16.3356 38.2674 18.3806 36.8631L18.9684 36.4595C19.5952 36.029 20.4046 36.029 21.0314 36.4595L21.6192 36.8631C23.6642 38.2674 26.3356 38.2674 28.3806 36.8631C29.4418 36.1344 30.7928 36.0492 31.9289 36.6343C34.7292 38.0765 37.9166 35.9488 37.9166 32.8713V20.5007C37.9166 10.364 29.9297 2.08301 19.9999 2.08301ZM4.58325 20.5007C4.58325 11.6744 11.5202 4.58301 19.9999 4.58301C28.4797 4.58301 35.4166 11.6744 35.4166 20.5007V32.8713C35.4166 34.2016 34.1008 34.9408 33.0736 34.4118C31.1162 33.4036 28.782 33.5548 26.9654 34.8022C25.773 35.621 24.2268 35.621 23.0344 34.8022L22.4467 34.3986C20.9672 33.3827 19.0326 33.3827 17.5532 34.3986L16.9654 34.8022C15.773 35.621 14.2268 35.621 13.0344 34.8022C11.2178 33.5548 8.88369 33.4036 6.92624 34.4118C5.89908 34.9408 4.58325 34.2016 4.58325 32.8713V20.5007Z" fill="#CACFD6"/>
</svg>
